PathFileType	4	(X/Y/Z)	c:/Users/goper/Files/vsCode/490R/osim_files/C07/C07_SSWS_02.trc
DataRate	CameraRate	NumFrames	NumMarkers	Units                	OrigDataRate	OrigDataStartFrame	OrigNumFrames
250.00	250.00	4	36	mm	250.0	1890	3023
                Frame#	Time	LPSIS			LASIS			LTH1			LTH2			LTH3			LTH4			LLFE			LMFE			LSH1			LSH2			LSH3			LSH4			LLMAL			LMMAL			LCAL			LMTP5			LTOE			LMTP1			RPSIS			RASIS			RTH1			RTH2			RTH3			RTH4			RLFE			RMFE			RSH1			RSH2			RSH3			RSH4			RLMAL			RMMAL			RCAL			RMTP1			RTOE			RMTP5		
		X1	Y1	Z1	X2	Y2	Z2	X3	Y3	Z3	X4	Y4	Z4	X5	Y5	Z5	X6	Y6	Z6	X7	Y7	Z7	X8	Y8	Z8	X9	Y9	Z9	X10	Y10	Z10	X11	Y11	Z11	X12	Y12	Z12	X13	Y13	Z13	X14	Y14	Z14	X15	Y15	Z15	X16	Y16	Z16	X17	Y17	Z17	X18	Y18	Z18	X19	Y19	Z19	X20	Y20	Z20	X21	Y21	Z21	X22	Y22	Z22	X23	Y23	Z23	X24	Y24	Z24	X25	Y25	Z25	X26	Y26	Z26	X27	Y27	Z27	X28	Y28	Z28	X29	Y29	Z29	X30	Y30	Z30	X31	Y31	Z31	X32	Y32	Z32	X33	Y33	Z33	X34	Y34	Z34	X35	Y35	Z35	X36	Y36	Z36

1890	7.55600	-357.30731	989.00745	391.61679	-523.92041	963.87067	476.87970	-414.54199	783.04932	526.10925	-405.12241	704.74969	521.41205	-395.04422	631.69470	504.98715	-481.52600	700.08502	496.22562	-340.73242	514.95807	478.83490	-341.41721	502.36319	358.05499	-235.11954	345.30774	476.61591	-228.11781	299.01163	469.89597	-295.58948	332.45193	473.78375	-276.06964	292.16513	463.53015	-175.02110	124.33374	420.67169	-208.19458	144.21777	349.65503	-107.85468	69.72446	371.30484	-285.86737	37.71191	447.68625	-343.01758	46.41633	394.57312	-313.25119	40.75002	341.16534	-358.82141	990.66925	292.88629	-519.43073	962.76904	219.80411	-500.88431	807.47839	155.35474	-524.00983	732.13446	150.93463	-547.39197	653.69073	154.68240	-591.62634	751.06720	187.55211	-604.78613	493.17764	194.26715	-605.16846	497.94986	310.51855	-620.02191	304.54385	184.94974	-665.79138	274.27618	178.89706	-674.10022	332.74249	180.61424	-692.32324	291.99127	183.01718	-732.56805	103.10662	222.55276	-760.47681	131.83800	296.36804	-718.49414	38.22853	280.11819	-909.62250	125.70533	291.68820	-921.14435	140.81558	239.28772	-889.41766	95.03451	186.27803
1891	7.56000	-362.04544	988.35223	391.29269	-528.77386	963.30103	476.48621	-419.13046	782.62091	525.81873	-409.51901	704.36749	521.17236	-399.44260	631.30743	504.72491	-485.96133	699.49969	495.94873	-344.83783	514.58069	478.63766	-345.32898	502.10867	357.99081	-237.97241	345.82700	476.81418	-230.61784	299.51462	470.15585	-298.42029	332.47147	473.72021	-278.17276	292.29370	463.53244	-175.91695	125.33530	421.04178	-209.06473	144.98126	349.95050	-108.26624	71.07961	371.78030	-285.90341	37.74562	447.73010	-343.09909	46.38203	394.56854	-313.31946	40.77366	341.13315	-363.30487	990.09424	292.60724	-523.79364	962.38312	219.22705	-505.18207	807.22675	154.94400	-528.81555	731.93683	150.88493	-552.55542	653.70184	154.98605	-596.27069	751.14380	187.41444	-609.78052	492.83218	194.30174	-610.77631	497.96445	310.26294	-624.05994	303.57382	185.98033	-669.35236	273.09106	179.44063	-678.04828	331.52292	180.69917	-696.39417	290.86710	183.13304	-736.70569	101.81777	223.15347	-764.67712	131.37321	296.88644	-722.79376	37.59253	281.61743	-913.31799	126.32710	292.05905	-924.98352	140.72690	239.70047	-893.87311	93.33530	187.20638
1892	7.56400	-366.71738	987.64734	391.09894	-533.59857	962.79358	476.02274	-423.72046	782.21503	525.39221	-413.99585	703.88879	520.83075	-403.85663	630.96613	504.49002	-490.07767	698.95618	495.81750	-348.84448	514.27594	478.50616	-349.23276	501.78235	357.94043	-241.06502	346.33640	477.10129	-233.18852	300.09909	470.43616	-301.23920	332.45169	473.59512	-280.36566	292.43243	463.55084	-176.75217	126.33358	421.39484	-209.94084	145.86340	350.25955	-108.63841	72.60478	372.06833	-286.02026	37.81380	447.70605	-343.17987	46.35912	394.54089	-313.40451	40.83016	341.09744	-367.77441	989.62238	292.38382	-528.13068	962.30530	218.65968	-509.78256	807.02020	154.69833	-533.95428	731.90369	150.85236	-558.15125	653.80621	155.14400	-601.26477	751.45782	187.23276	-614.51288	492.35501	194.84480	-616.87476	498.26117	310.03464	-627.92053	302.70026	186.98148	-673.02985	271.84232	180.09998	-682.09875	330.35617	180.77150	-699.91046	289.43625	183.25972	-740.43054	100.49350	223.97260	-768.33051	130.77913	297.24115	-726.47620	37.14648	282.85953	-916.55560	126.56502	292.29047	-928.46082	139.96101	239.59669	-897.75684	91.11278	188.10561
1893	7.56800	-371.43011	986.99487	390.79230	-538.31421	962.23578	475.62421	-428.48190	781.84790	525.04694	-418.66083	703.58087	520.44312	-408.39044	630.62842	504.22873	-495.07846	698.46790	495.16354	-353.22296	514.05634	478.30679	-353.22351	501.51389	357.86176	-243.99323	346.93817	477.31598	-235.73923	300.82001	470.63431	-304.16797	332.47583	473.51715	-282.65317	292.58328	463.58569	-177.76071	127.46918	421.81479	-211.01674	146.67836	350.64560	-108.78817	74.26353	372.61850	-286.18549	37.88692	447.67108	-343.28522	46.38706	394.50986	-313.53552	40.92582	341.07574	-372.46176	988.97430	292.24435	-532.68713	962.03217	217.89938	-514.62988	806.98944	154.46408	-539.41589	732.02307	150.81982	-564.10583	654.13049	155.29395	-606.48926	751.82520	187.11394	-620.23480	492.31119	194.48087	-622.88312	498.54404	309.77835	-631.88177	301.88693	188.02283	-676.63354	270.74765	180.77472	-685.99792	329.10706	180.97931	-703.81567	288.32339	183.61066	-743.59283	99.39062	224.61180	-771.90466	130.11717	297.78949	-729.24927	36.97648	283.98984	-919.50970	126.11087	292.42236	-931.68823	138.50389	239.56882	-901.09222	88.53345	188.98386
